<svg height="480.33334" version="1.1" width="640.3333399999999" xmlns="http://www.w3.org/2000/svg" style="overflow: hidden; position: relative; left: -0.666412px; top: -0.645508px;"><desc style="-webkit-tap-highlight-color: rgba(0, 0, 0, 0);">Created with Raphaël 2.0.1</desc><defs style="-webkit-tap-highlight-color: rgba(0, 0, 0, 0);"></defs><rect x="0" y="0" width="640.3333399999999" height="480.33334" r="0" rx="0" ry="0" fill="#f5f5f5" stroke="none" style="-webkit-tap-highlight-color: rgba(0, 0, 0, 0);"></rect><ellipse cx="320" cy="240" rx="130" ry="183.29999999999998" fill="none" stroke="#555555" transform="matrix(1,0,0,1,0,0)" stroke-width="1" opacity="0.5" style="-webkit-tap-highlight-color: rgba(0, 0, 0, 0); opacity: 0.5;"></ellipse><ellipse cx="320" cy="240" rx="125" ry="176.25" fill="none" stroke="#555555" transform="matrix(0.9808,0.1951,-0.1951,0.9808,52.9704,-57.8174)" stroke-width="1" opacity="0.5" style="-webkit-tap-highlight-color: rgba(0, 0, 0, 0); opacity: 0.5;"></ellipse><ellipse cx="320" cy="240" rx="122" ry="172.01999999999998" fill="none" stroke="#555555" transform="matrix(0.9239,0.3827,-0.3827,0.9239,116.2026,-104.1898)" stroke-width="1" opacity="0.5" style="-webkit-tap-highlight-color: rgba(0, 0, 0, 0); opacity: 0.5;"></ellipse><ellipse cx="320" cy="240" rx="126" ry="177.66" fill="none" stroke="#555555" transform="matrix(0.8315,0.5556,-0.5556,0.8315,187.2666,-137.3352)" stroke-width="1" opacity="0.5" style="-webkit-tap-highlight-color: rgba(0, 0, 0, 0); opacity: 0.5;"></ellipse><ellipse cx="320" cy="240" rx="121" ry="170.60999999999999" fill="none" stroke="#555555" transform="matrix(0.7071,0.7071,-0.7071,0.7071,263.4315,-155.9798)" stroke-width="1" opacity="0.5" style="-webkit-tap-highlight-color: rgba(0, 0, 0, 0); opacity: 0.5;"></ellipse><ellipse cx="320" cy="240" rx="120" ry="169.2" fill="none" stroke="#555555" transform="matrix(0.5556,0.8315,-0.8315,0.5556,341.7702,-159.4071)" stroke-width="1" opacity="0.5" style="-webkit-tap-highlight-color: rgba(0, 0, 0, 0); opacity: 0.5;"></ellipse><ellipse cx="320" cy="240" rx="125" ry="176.25" fill="none" stroke="#555555" transform="matrix(0.3827,0.9239,-0.9239,0.3827,419.2724,-147.4855)" stroke-width="1" opacity="0.5" style="-webkit-tap-highlight-color: rgba(0, 0, 0, 0); opacity: 0.5;"></ellipse><ellipse cx="320" cy="240" rx="125" ry="176.25" fill="none" stroke="#555555" transform="matrix(0.1951,0.9808,-0.9808,0.1951,492.9596,-120.673)" stroke-width="1" opacity="0.5" style="-webkit-tap-highlight-color: rgba(0, 0, 0, 0); opacity: 0.5;"></ellipse><ellipse cx="320" cy="240" rx="123" ry="173.42999999999998" fill="none" stroke="#555555" transform="matrix(0,1,-1,0,560,-80)" stroke-width="1" opacity="0.5" style="-webkit-tap-highlight-color: rgba(0, 0, 0, 0); opacity: 0.5;"></ellipse><ellipse cx="320" cy="240" rx="121" ry="170.60999999999999" fill="none" stroke="#555555" transform="matrix(-0.1951,0.9808,-0.9808,-0.1951,617.8174,-27.0296)" stroke-width="1" opacity="0.5" style="-webkit-tap-highlight-color: rgba(0, 0, 0, 0); opacity: 0.5;"></ellipse><ellipse cx="320" cy="240" rx="129" ry="181.89" fill="none" stroke="#555555" transform="matrix(-0.3827,0.9239,-0.9239,-0.3827,664.1898,36.2026)" stroke-width="1" opacity="0.5" style="-webkit-tap-highlight-color: rgba(0, 0, 0, 0); opacity: 0.5;"></ellipse><ellipse cx="320" cy="240" rx="121" ry="170.60999999999999" fill="none" stroke="#555555" transform="matrix(-0.5556,0.8315,-0.8315,-0.5556,697.3352,107.2666)" stroke-width="1" opacity="0.5" style="-webkit-tap-highlight-color: rgba(0, 0, 0, 0); opacity: 0.5;"></ellipse><ellipse cx="320" cy="240" rx="125" ry="176.25" fill="none" stroke="#555555" transform="matrix(-0.7071,0.7071,-0.7071,-0.7071,715.9798,183.4315)" stroke-width="1" opacity="0.5" style="-webkit-tap-highlight-color: rgba(0, 0, 0, 0); opacity: 0.5;"></ellipse><ellipse cx="320" cy="240" rx="124" ry="174.84" fill="none" stroke="#555555" transform="matrix(-0.8315,0.5556,-0.5556,-0.8315,719.4071,261.7702)" stroke-width="1" opacity="0.5" style="-webkit-tap-highlight-color: rgba(0, 0, 0, 0); opacity: 0.5;"></ellipse><ellipse cx="320" cy="240" rx="130" ry="183.29999999999998" fill="none" stroke="#555555" transform="matrix(-0.9239,0.3827,-0.3827,-0.9239,707.4855,339.2724)" stroke-width="1" opacity="0.5" style="-webkit-tap-highlight-color: rgba(0, 0, 0, 0); opacity: 0.5;"></ellipse><ellipse cx="320" cy="240" rx="130" ry="183.29999999999998" fill="none" stroke="#555555" transform="matrix(-0.9808,0.1951,-0.1951,-0.9808,680.673,412.9596)" stroke-width="1" opacity="0.5" style="-webkit-tap-highlight-color: rgba(0, 0, 0, 0); opacity: 0.5;"></ellipse><ellipse cx="320" cy="240" rx="129" ry="181.89" fill="none" stroke="#555555" transform="matrix(-1,0,0,-1,640,480)" stroke-width="1" opacity="0.5" style="-webkit-tap-highlight-color: rgba(0, 0, 0, 0); opacity: 0.5;"></ellipse><ellipse cx="320" cy="240" rx="128" ry="180.48" fill="none" stroke="#555555" transform="matrix(-0.9808,-0.1951,0.1951,-0.9808,587.0296,537.8174)" stroke-width="1" opacity="0.5" style="-webkit-tap-highlight-color: rgba(0, 0, 0, 0); opacity: 0.5;"></ellipse><ellipse cx="320" cy="240" rx="129" ry="181.89" fill="none" stroke="#555555" transform="matrix(-0.9239,-0.3827,0.3827,-0.9239,523.7974,584.1898)" stroke-width="1" opacity="0.5" style="-webkit-tap-highlight-color: rgba(0, 0, 0, 0); opacity: 0.5;"></ellipse><ellipse cx="320" cy="240" rx="120" ry="169.2" fill="none" stroke="#555555" transform="matrix(-0.8315,-0.5556,0.5556,-0.8315,452.7334,617.3352)" stroke-width="1" opacity="0.5" style="-webkit-tap-highlight-color: rgba(0, 0, 0, 0); opacity: 0.5;"></ellipse><ellipse cx="320" cy="240" rx="125" ry="176.25" fill="none" stroke="#555555" transform="matrix(-0.7071,-0.7071,0.7071,-0.7071,376.5685,635.9798)" stroke-width="1" opacity="0.5" style="-webkit-tap-highlight-color: rgba(0, 0, 0, 0); opacity: 0.5;"></ellipse><ellipse cx="320" cy="240" rx="121" ry="170.60999999999999" fill="none" stroke="#555555" transform="matrix(-0.5556,-0.8315,0.8315,-0.5556,298.2298,639.4071)" stroke-width="1" opacity="0.5" style="-webkit-tap-highlight-color: rgba(0, 0, 0, 0); opacity: 0.5;"></ellipse><ellipse cx="320" cy="240" rx="125" ry="176.25" fill="none" stroke="#555555" transform="matrix(-0.3827,-0.9239,0.9239,-0.3827,220.7276,627.4855)" stroke-width="1" opacity="0.5" style="-webkit-tap-highlight-color: rgba(0, 0, 0, 0); opacity: 0.5;"></ellipse><ellipse cx="320" cy="240" rx="130" ry="183.29999999999998" fill="none" stroke="#555555" transform="matrix(-0.1951,-0.9808,0.9808,-0.1951,147.0404,600.673)" stroke-width="1" opacity="0.5" style="-webkit-tap-highlight-color: rgba(0, 0, 0, 0); opacity: 0.5;"></ellipse><ellipse cx="320" cy="240" rx="128" ry="180.48" fill="none" stroke="#555555" transform="matrix(0,-1,1,0,80,560)" stroke-width="1" opacity="0.5" style="-webkit-tap-highlight-color: rgba(0, 0, 0, 0); opacity: 0.5;"></ellipse><ellipse cx="320" cy="240" rx="126" ry="177.66" fill="none" stroke="#555555" transform="matrix(0.1951,-0.9808,0.9808,0.1951,22.1826,507.0296)" stroke-width="1" opacity="0.5" style="-webkit-tap-highlight-color: rgba(0, 0, 0, 0); opacity: 0.5;"></ellipse><ellipse cx="320" cy="240" rx="120" ry="169.2" fill="none" stroke="#555555" transform="matrix(0.3827,-0.9239,0.9239,0.3827,-24.1898,443.7974)" stroke-width="1" opacity="0.5" style="-webkit-tap-highlight-color: rgba(0, 0, 0, 0); opacity: 0.5;"></ellipse><ellipse cx="320" cy="240" rx="120" ry="169.2" fill="none" stroke="#555555" transform="matrix(0.5556,-0.8315,0.8315,0.5556,-57.3352,372.7334)" stroke-width="1" opacity="0.5" style="-webkit-tap-highlight-color: rgba(0, 0, 0, 0); opacity: 0.5;"></ellipse><ellipse cx="320" cy="240" rx="120" ry="169.2" fill="none" stroke="#555555" transform="matrix(0.7071,-0.7071,0.7071,0.7071,-75.9798,296.5685)" stroke-width="1" opacity="0.5" style="-webkit-tap-highlight-color: rgba(0, 0, 0, 0); opacity: 0.5;"></ellipse><ellipse cx="320" cy="240" rx="124" ry="174.84" fill="none" stroke="#555555" transform="matrix(0.8315,-0.5556,0.5556,0.8315,-79.4071,218.2298)" stroke-width="1" opacity="0.5" style="-webkit-tap-highlight-color: rgba(0, 0, 0, 0); opacity: 0.5;"></ellipse><ellipse cx="320" cy="240" rx="127" ry="179.07" fill="none" stroke="#555555" transform="matrix(0.9239,-0.3827,0.3827,0.9239,-67.4855,140.7276)" stroke-width="1" opacity="0.5" style="-webkit-tap-highlight-color: rgba(0, 0, 0, 0); opacity: 0.5;"></ellipse><ellipse cx="320" cy="240" rx="128" ry="180.48" fill="none" stroke="#555555" transform="matrix(0.9808,-0.1951,0.1951,0.9808,-40.673,67.0404)" stroke-width="1" opacity="0.5" style="-webkit-tap-highlight-color: rgba(0, 0, 0, 0); opacity: 0.5;"></ellipse><ellipse cx="320" cy="240" rx="127" ry="179.07" fill="none" stroke="#555555" transform="matrix(1,0,0,1,0,0)" stroke-width="1" opacity="0.5" style="-webkit-tap-highlight-color: rgba(0, 0, 0, 0); opacity: 0.5;"></ellipse><ellipse cx="320" cy="240" rx="126" ry="177.66" fill="none" stroke="#555555" transform="matrix(0.9808,0.1951,-0.1951,0.9808,52.9704,-57.8174)" stroke-width="1" opacity="0.5" style="-webkit-tap-highlight-color: rgba(0, 0, 0, 0); opacity: 0.5;"></ellipse><ellipse cx="320" cy="240" rx="122" ry="172.01999999999998" fill="none" stroke="#555555" transform="matrix(0.9239,0.3827,-0.3827,0.9239,116.2026,-104.1898)" stroke-width="1" opacity="0.5" style="-webkit-tap-highlight-color: rgba(0, 0, 0, 0); opacity: 0.5;"></ellipse><ellipse cx="320" cy="240" rx="130" ry="183.29999999999998" fill="none" stroke="#555555" transform="matrix(0.8315,0.5556,-0.5556,0.8315,187.2666,-137.3352)" stroke-width="1" opacity="0.5" style="-webkit-tap-highlight-color: rgba(0, 0, 0, 0); opacity: 0.5;"></ellipse><ellipse cx="320" cy="240" rx="128" ry="180.48" fill="none" stroke="#555555" transform="matrix(0.7071,0.7071,-0.7071,0.7071,263.4315,-155.9798)" stroke-width="1" opacity="0.5" style="-webkit-tap-highlight-color: rgba(0, 0, 0, 0); opacity: 0.5;"></ellipse><ellipse cx="320" cy="240" rx="125" ry="176.25" fill="none" stroke="#555555" transform="matrix(0.5556,0.8315,-0.8315,0.5556,341.7702,-159.4071)" stroke-width="1" opacity="0.5" style="-webkit-tap-highlight-color: rgba(0, 0, 0, 0); opacity: 0.5;"></ellipse><ellipse cx="320" cy="240" rx="121" ry="170.60999999999999" fill="none" stroke="#555555" transform="matrix(0.3827,0.9239,-0.9239,0.3827,419.2724,-147.4855)" stroke-width="1" opacity="0.5" style="-webkit-tap-highlight-color: rgba(0, 0, 0, 0); opacity: 0.5;"></ellipse><ellipse cx="320" cy="240" rx="128" ry="180.48" fill="none" stroke="#555555" transform="matrix(0.1951,0.9808,-0.9808,0.1951,492.9596,-120.673)" stroke-width="1" opacity="0.5" style="-webkit-tap-highlight-color: rgba(0, 0, 0, 0); opacity: 0.5;"></ellipse><ellipse cx="320" cy="240" rx="122" ry="172.01999999999998" fill="none" stroke="#555555" transform="matrix(0,1,-1,0,560,-80)" stroke-width="1" opacity="0.5" style="-webkit-tap-highlight-color: rgba(0, 0, 0, 0); opacity: 0.5;"></ellipse><ellipse cx="320" cy="240" rx="128" ry="180.48" fill="none" stroke="#555555" transform="matrix(-0.1951,0.9808,-0.9808,-0.1951,617.8174,-27.0296)" stroke-width="1" opacity="0.5" style="-webkit-tap-highlight-color: rgba(0, 0, 0, 0); opacity: 0.5;"></ellipse><ellipse cx="320" cy="240" rx="123" ry="173.42999999999998" fill="none" stroke="#555555" transform="matrix(-0.3827,0.9239,-0.9239,-0.3827,664.1898,36.2026)" stroke-width="1" opacity="0.5" style="-webkit-tap-highlight-color: rgba(0, 0, 0, 0); opacity: 0.5;"></ellipse><ellipse cx="320" cy="240" rx="129" ry="181.89" fill="none" stroke="#555555" transform="matrix(-0.5556,0.8315,-0.8315,-0.5556,697.3352,107.2666)" stroke-width="1" opacity="0.5" style="-webkit-tap-highlight-color: rgba(0, 0, 0, 0); opacity: 0.5;"></ellipse><ellipse cx="320" cy="240" rx="128" ry="180.48" fill="none" stroke="#555555" transform="matrix(-0.7071,0.7071,-0.7071,-0.7071,715.9798,183.4315)" stroke-width="1" opacity="0.5" style="-webkit-tap-highlight-color: rgba(0, 0, 0, 0); opacity: 0.5;"></ellipse><ellipse cx="320" cy="240" rx="124" ry="174.84" fill="none" stroke="#555555" transform="matrix(-0.8315,0.5556,-0.5556,-0.8315,719.4071,261.7702)" stroke-width="1" opacity="0.5" style="-webkit-tap-highlight-color: rgba(0, 0, 0, 0); opacity: 0.5;"></ellipse><ellipse cx="320" cy="240" rx="120" ry="169.2" fill="none" stroke="#555555" transform="matrix(-0.9239,0.3827,-0.3827,-0.9239,707.4855,339.2724)" stroke-width="1" opacity="0.5" style="-webkit-tap-highlight-color: rgba(0, 0, 0, 0); opacity: 0.5;"></ellipse><ellipse cx="320" cy="240" rx="124" ry="174.84" fill="none" stroke="#555555" transform="matrix(-0.9808,0.1951,-0.1951,-0.9808,680.673,412.9596)" stroke-width="1" opacity="0.5" style="-webkit-tap-highlight-color: rgba(0, 0, 0, 0); opacity: 0.5;"></ellipse><ellipse cx="320" cy="240" rx="126" ry="177.66" fill="none" stroke="#555555" transform="matrix(-1,0,0,-1,640,480)" stroke-width="1" opacity="0.5" style="-webkit-tap-highlight-color: rgba(0, 0, 0, 0); opacity: 0.5;"></ellipse><ellipse cx="320" cy="240" rx="120" ry="169.2" fill="none" stroke="#555555" transform="matrix(-0.9808,-0.1951,0.1951,-0.9808,587.0296,537.8174)" stroke-width="1" opacity="0.5" style="-webkit-tap-highlight-color: rgba(0, 0, 0, 0); opacity: 0.5;"></ellipse><ellipse cx="320" cy="240" rx="121" ry="170.60999999999999" fill="none" stroke="#555555" transform="matrix(-0.9239,-0.3827,0.3827,-0.9239,523.7974,584.1898)" stroke-width="1" opacity="0.5" style="-webkit-tap-highlight-color: rgba(0, 0, 0, 0); opacity: 0.5;"></ellipse><ellipse cx="320" cy="240" rx="124" ry="174.84" fill="none" stroke="#555555" transform="matrix(-0.8315,-0.5556,0.5556,-0.8315,452.7334,617.3352)" stroke-width="1" opacity="0.5" style="-webkit-tap-highlight-color: rgba(0, 0, 0, 0); opacity: 0.5;"></ellipse><ellipse cx="320" cy="240" rx="124" ry="174.84" fill="none" stroke="#555555" transform="matrix(-0.7071,-0.7071,0.7071,-0.7071,376.5685,635.9798)" stroke-width="1" opacity="0.5" style="-webkit-tap-highlight-color: rgba(0, 0, 0, 0); opacity: 0.5;"></ellipse><ellipse cx="320" cy="240" rx="128" ry="180.48" fill="none" stroke="#555555" transform="matrix(-0.5556,-0.8315,0.8315,-0.5556,298.2298,639.4071)" stroke-width="1" opacity="0.5" style="-webkit-tap-highlight-color: rgba(0, 0, 0, 0); opacity: 0.5;"></ellipse><ellipse cx="320" cy="240" rx="127" ry="179.07" fill="none" stroke="#555555" transform="matrix(-0.3827,-0.9239,0.9239,-0.3827,220.7276,627.4855)" stroke-width="1" opacity="0.5" style="-webkit-tap-highlight-color: rgba(0, 0, 0, 0); opacity: 0.5;"></ellipse><ellipse cx="320" cy="240" rx="124" ry="174.84" fill="none" stroke="#555555" transform="matrix(-0.1951,-0.9808,0.9808,-0.1951,147.0404,600.673)" stroke-width="1" opacity="0.5" style="-webkit-tap-highlight-color: rgba(0, 0, 0, 0); opacity: 0.5;"></ellipse><ellipse cx="320" cy="240" rx="129" ry="181.89" fill="none" stroke="#555555" transform="matrix(0,-1,1,0,80,560)" stroke-width="1" opacity="0.5" style="-webkit-tap-highlight-color: rgba(0, 0, 0, 0); opacity: 0.5;"></ellipse><ellipse cx="320" cy="240" rx="130" ry="183.29999999999998" fill="none" stroke="#555555" transform="matrix(0.1951,-0.9808,0.9808,0.1951,22.1826,507.0296)" stroke-width="1" opacity="0.5" style="-webkit-tap-highlight-color: rgba(0, 0, 0, 0); opacity: 0.5;"></ellipse><ellipse cx="320" cy="240" rx="127" ry="179.07" fill="none" stroke="#555555" transform="matrix(0.3827,-0.9239,0.9239,0.3827,-24.1898,443.7974)" stroke-width="1" opacity="0.5" style="-webkit-tap-highlight-color: rgba(0, 0, 0, 0); opacity: 0.5;"></ellipse><ellipse cx="320" cy="240" rx="127" ry="179.07" fill="none" stroke="#555555" transform="matrix(0.5556,-0.8315,0.8315,0.5556,-57.3352,372.7334)" stroke-width="1" opacity="0.5" style="-webkit-tap-highlight-color: rgba(0, 0, 0, 0); opacity: 0.5;"></ellipse><ellipse cx="320" cy="240" rx="122" ry="172.01999999999998" fill="none" stroke="#555555" transform="matrix(0.7071,-0.7071,0.7071,0.7071,-75.9798,296.5685)" stroke-width="1" opacity="0.5" style="-webkit-tap-highlight-color: rgba(0, 0, 0, 0); opacity: 0.5;"></ellipse><ellipse cx="320" cy="240" rx="126" ry="177.66" fill="none" stroke="#555555" transform="matrix(0.8315,-0.5556,0.5556,0.8315,-79.4071,218.2298)" stroke-width="1" opacity="0.5" style="-webkit-tap-highlight-color: rgba(0, 0, 0, 0); opacity: 0.5;"></ellipse><ellipse cx="320" cy="240" rx="128" ry="180.48" fill="none" stroke="#555555" transform="matrix(0.9239,-0.3827,0.3827,0.9239,-67.4855,140.7276)" stroke-width="1" opacity="0.5" style="-webkit-tap-highlight-color: rgba(0, 0, 0, 0); opacity: 0.5;"></ellipse><ellipse cx="320" cy="240" rx="124" ry="174.84" fill="none" stroke="#555555" transform="matrix(0.9808,-0.1951,0.1951,0.9808,-40.673,67.0404)" stroke-width="1" opacity="0.5" style="-webkit-tap-highlight-color: rgba(0, 0, 0, 0); opacity: 0.5;"></ellipse></svg>